<svg xmlns="http://www.w3.org/2000/svg" id="a" width="59" height="59"><defs><style>.b{fill:#fff}</style></defs><path d="M43 59H16C7.2 59 0 51.8 0 43V16C0 7.2 7.2 0 16 0h27c8.8 0 16 7.2 16 16v27c0 8.8-7.2 16-16 16Z"/><path d="M8.73 27.15c0-.75 0-1.48-.02-2.22h2.28c.03.21.08.69.09 1.03.44-.64 1.13-1.23 2.4-1.23s1.92.64 2.23 1.31c.5-.71 1.25-1.31 2.66-1.31 1.5 0 2.73.92 2.73 3.17v5.66h-2.33v-5.37c0-.78-.28-1.54-1.26-1.54s-1.41.65-1.41 1.98v4.93h-2.34v-5.28c0-.89-.22-1.62-1.24-1.62s-1.43.6-1.43 2.08v4.82H8.73v-6.4ZM31.26 29.22c0 2.61-1.56 4.53-4.29 4.53s-4.24-1.91-4.24-4.48 1.61-4.54 4.35-4.54c2.54 0 4.18 1.79 4.18 4.5Zm-6.11.02c0 1.66.71 2.64 1.86 2.64s1.82-.98 1.82-2.63c0-1.8-.66-2.66-1.85-2.66-1.11 0-1.83.82-1.83 2.64ZM32.92 27.1c0-.73 0-1.54-.02-2.17h2.31c.05.22.08.82.09 1.1.29-.54.99-1.3 2.5-1.3 1.73 0 2.86 1.17 2.86 3.34v5.49h-2.39v-5.22c0-.97-.32-1.67-1.38-1.67s-1.6.56-1.6 2.09v4.81H32.9v-6.45ZM50.8 29.22c0 2.61-1.56 4.53-4.29 4.53s-4.24-1.91-4.24-4.48 1.61-4.54 4.35-4.54c2.54 0 4.18 1.79 4.18 4.5Zm-6.11.02c0 1.66.71 2.64 1.86 2.64s1.82-.98 1.82-2.63c0-1.8-.66-2.66-1.85-2.66-1.11 0-1.83.82-1.83 2.64Z" class="b"/></svg>